<svg aria-hidden="true" style="position: absolute; width: 0; height: 0; overflow: hidden;" version="1.1" xmlns="http://www.w3.org/2000/svg" xmlns:xlink="http://www.w3.org/1999/xlink">
<defs>
<symbol id="icon-close" viewBox="0 0 32 32">
<path d="M23.734 10.304l-1.504-1.504-5.963 5.962-5.962-5.962-1.504 1.504 5.962 5.962-5.962 5.963 1.504 1.504 5.962-5.963 5.963 5.963 1.504-1.504-5.963-5.963 5.963-5.962z"></path>
</symbol>
<symbol id="icon-phone-black" viewBox="0 0 32 32">
<path d="M24.882 19.774l-3.268-0.373c-0.090-0.011-0.194-0.018-0.299-0.018-0.707 0-1.348 0.287-1.811 0.75l-2.368 2.368c-3.669-1.894-6.585-4.81-8.427-8.372l-0.051-0.108 2.382-2.377c0.463-0.463 0.75-1.103 0.75-1.81 0-0.106-0.006-0.21-0.019-0.312l0.001 0.012-0.373-3.243c-0.155-1.287-1.24-2.276-2.557-2.276-0.001 0-0.002 0-0.003 0h-2.226c-1.454 0-2.663 1.209-2.574 2.663 0.683 10.987 9.47 19.76 20.444 20.443 1.452 0.089 2.663-1.12 2.663-2.574v-2.226c0-0.004 0-0.008 0-0.012 0-1.308-0.985-2.386-2.253-2.532l-0.012-0.001z"></path>
</symbol>
<symbol id="icon-email" viewBox="0 0 32 32">
<path d="M26.667 5.333h-21.333c-1.467 0-2.652 1.2-2.652 2.667l-0.014 16c0 1.467 1.2 2.667 2.667 2.667h21.333c1.467 0 2.667-1.2 2.667-2.667v-16c0-1.467-1.2-2.667-2.667-2.667zM26.133 11.001l-9.426 5.892c-0.201 0.126-0.446 0.2-0.708 0.2s-0.506-0.075-0.713-0.204l0.006 0.003-9.426-5.892c-0.336-0.201-0.557-0.562-0.557-0.975 0-0.625 0.507-1.132 1.132-1.132 0.233 0 0.449 0.070 0.629 0.19l-0.004-0.003 8.933 5.586 8.933-5.588c0.176-0.118 0.392-0.188 0.624-0.188 0.625 0 1.132 0.507 1.132 1.132 0 0.413-0.221 0.775-0.552 0.972l-0.005 0.003z"></path>
</symbol>
<symbol id="icon-light_mode" viewBox="0 0 32 32">
<path d="M16 20.667q1.933 0 3.3-1.367t1.367-3.3-1.367-3.3-3.3-1.367-3.3 1.367-1.367 3.3 1.367 3.3 3.3 1.367zM16 22.667q-2.767 0-4.717-1.95t-1.95-4.717 1.95-4.717 4.717-1.95 4.717 1.95 1.95 4.717-1.95 4.717-4.717 1.95zM2.333 17q-0.433 0-0.717-0.283t-0.283-0.717 0.283-0.717 0.717-0.283h3.333q0.433 0 0.717 0.283t0.283 0.717-0.283 0.717-0.717 0.283zM26.333 17q-0.433 0-0.717-0.283t-0.283-0.717 0.283-0.717 0.717-0.283h3.333q0.433 0 0.717 0.283t0.283 0.717-0.283 0.717-0.717 0.283zM16 6.667q-0.433 0-0.717-0.283t-0.283-0.717v-3.333q0-0.433 0.283-0.717t0.717-0.283 0.717 0.283 0.283 0.717v3.333q0 0.433-0.283 0.717t-0.717 0.283zM16 30.667q-0.433 0-0.717-0.283t-0.283-0.717v-3.333q0-0.433 0.283-0.717t0.717-0.283 0.717 0.283 0.283 0.717v3.333q0 0.433-0.283 0.717t-0.717 0.283zM8 9.4l-1.9-1.867q-0.3-0.3-0.283-0.717t0.283-0.717q0.3-0.3 0.717-0.3t0.717 0.3l1.867 1.9q0.267 0.3 0.267 0.7t-0.267 0.667q-0.267 0.3-0.683 0.3t-0.717-0.267zM24.467 25.9l-1.867-1.9q-0.267-0.3-0.267-0.717t0.3-0.683q0.267-0.3 0.667-0.3t0.7 0.3l1.9 1.867q0.3 0.3 0.283 0.717t-0.283 0.717q-0.3 0.3-0.717 0.3t-0.717-0.3zM22.6 9.4q-0.3-0.3-0.3-0.7t0.3-0.7l1.867-1.9q0.3-0.3 0.717-0.283t0.717 0.283q0.3 0.3 0.3 0.717t-0.3 0.717l-1.9 1.867q-0.267 0.267-0.683 0.267t-0.717-0.267zM6.1 25.9q-0.3-0.3-0.3-0.717t0.3-0.717l1.9-1.867q0.3-0.3 0.7-0.3t0.7 0.3 0.3 0.7-0.3 0.7l-1.867 1.9q-0.3 0.3-0.717 0.283t-0.717-0.283zM16 16q0 0 0 0t0 0 0 0 0 0 0 0 0 0 0 0 0 0z"></path>
</symbol>
<symbol id="icon-dark_mode" viewBox="0 0 32 32">
<path d="M16 28q-5 0-8.5-3.5t-3.5-8.5 3.5-8.5 8.5-3.5q0.267 0 0.567 0.017t0.767 0.050q-1.2 1.067-1.867 2.633t-0.667 3.3q0 3 2.1 5.1t5.1 2.1q1.733 0 3.3-0.617t2.633-1.717q0.033 0.4 0.050 0.65t0.017 0.483q0 5-3.5 8.5t-8.5 3.5zM16 26q3.633 0 6.333-2.25t3.367-5.283q-0.833 0.367-1.783 0.55t-1.917 0.183q-3.833 0-6.517-2.683t-2.683-6.517q0-0.8 0.167-1.717t0.6-2.083q-3.267 0.9-5.417 3.65t-2.15 6.15q0 4.167 2.917 7.083t7.083 2.917zM15.867 16.1q0 0 0 0t0 0 0 0 0 0 0 0 0 0 0 0 0 0 0 0 0 0 0 0 0 0z"></path>
</symbol>
</defs>
</svg>
